<?xml version="1.0" standalone="no"?>
<!DOCTYPE svg PUBLIC "-//W3C//DTD SVG 20010904//EN"
 "http://www.w3.org/TR/2001/REC-SVG-20010904/DTD/svg10.dtd">
<svg version="1.0" xmlns="http://www.w3.org/2000/svg"
 width="1024.000000pt" height="1024.000000pt" viewBox="0 0 1024.000000 1024.000000"
 preserveAspectRatio="xMidYMid meet">

<g transform="translate(0.000000,1024.000000) scale(0.100000,-0.100000)"
fill="#000000" stroke="none">
<path d="M0 5120 l0 -5120 5120 0 5120 0 0 5120 0 5120 -5120 0 -5120 0 0
-5120z m5430 3915 c80 -8 171 -19 203 -25 31 -5 81 -14 110 -19 383 -69 806
-225 1162 -431 124 -72 159 -95 342 -233 321 -240 590 -511 780 -785 37 -53
70 -99 73 -102 4 -3 28 -39 55 -80 26 -41 58 -91 70 -110 41 -61 145 -252 191
-350 25 -52 54 -111 64 -130 10 -19 28 -62 41 -95 12 -33 25 -64 29 -70 9 -13
104 -300 125 -380 9 -33 22 -82 29 -110 45 -169 81 -420 96 -666 5 -96 10
-181 11 -189 1 -27 39 113 50 188 11 69 29 99 29 47 0 -14 9 -51 19 -82 11
-32 36 -116 55 -188 44 -157 55 -187 69 -178 5 3 7 1 4 -4 -7 -11 71 -120 116
-163 15 -14 27 -30 27 -37 0 -7 6 -16 14 -20 16 -9 109 -189 109 -210 0 -7 6
-13 14 -13 7 0 12 -5 10 -11 -3 -18 40 -25 248 -44 105 -10 194 -21 198 -25 9
-8 -74 -16 -298 -29 l-140 -8 -37 -35 c-21 -19 -38 -39 -38 -45 0 -6 -3 -13
-7 -15 -5 -1 -20 -21 -35 -43 -36 -53 -190 -205 -208 -205 -4 0 -23 -16 -43
-35 -30 -29 -37 -32 -38 -18 0 11 -3 13 -6 5 -2 -6 -8 -10 -12 -8 -4 3 -8 0
-9 -7 0 -7 -13 -56 -28 -110 -26 -95 -44 -123 -44 -71 0 15 -5 54 -11 88 -11
59 -14 62 -53 80 -22 10 -44 18 -48 17 -5 0 -8 4 -8 10 0 6 -9 8 -20 4 -12 -4
-20 -2 -20 5 0 6 -5 10 -11 8 -6 -2 -35 -76 -64 -163 -139 -423 -384 -899
-612 -1185 -162 -204 -340 -397 -473 -515 -103 -91 -188 -163 -230 -195 -25
-19 -47 -37 -50 -40 -11 -12 -151 -111 -254 -180 -106 -70 -338 -194 -521
-277 -239 -108 -604 -206 -970 -260 -187 -28 -641 -25 -832 5 -507 78 -964
245 -1390 508 -380 234 -789 614 -1059 984 -241 329 -401 651 -569 1140 -24
71 -49 138 -55 150 -13 23 -38 26 -46 5 -4 -8 -10 -12 -15 -9 -5 3 -9 0 -9 -5
0 -6 -5 -11 -11 -11 -6 0 -9 7 -5 15 3 8 3 15 0 15 -2 0 -9 -10 -14 -22 -9
-23 -9 -23 -10 2 -2 24 -2 24 -11 -5 -5 -16 -16 -66 -25 -110 -9 -44 -20 -86
-24 -94 -4 -8 -16 24 -30 80 -27 113 -38 138 -51 118 -6 -10 -9 -5 -9 15 0 28
-1 29 -15 10 -14 -19 -14 -18 -15 4 0 12 -5 22 -12 22 -11 0 -40 26 -170 155
-27 28 -61 69 -75 93 -14 23 -28 42 -32 42 -4 0 -16 18 -27 40 -22 46 -6 42
-306 61 -104 7 -188 15 -188 19 0 4 53 12 118 19 353 37 355 37 331 52 -11 7
-10 9 3 9 10 0 17 3 16 8 -4 13 68 190 83 202 3 3 14 22 23 42 10 20 33 52 51
71 19 19 31 38 28 41 -4 3 -1 6 5 6 6 0 13 9 17 20 3 11 28 43 55 72 60 65 89
121 135 264 13 40 26 100 30 133 4 34 9 60 12 58 2 -3 11 -36 19 -73 7 -37 19
-73 25 -78 9 -8 10 -5 7 10 -6 25 7 195 21 279 6 33 20 119 32 190 81 508 259
961 574 1463 60 96 218 305 310 412 503 580 1241 1046 1940 1224 180 46 406
82 630 99 110 9 356 5 485 -8z m-2120 -154 c0 -5 -13 -14 -30 -21 -16 -7 -35
-18 -41 -26 -12 -15 -39 -19 -39 -6 0 10 82 62 98 62 6 0 12 -4 12 -9z m-190
-96 c0 -8 -121 -87 -126 -82 -7 7 98 87 114 87 6 0 12 -2 12 -5z m-225 -151
c-81 -67 -176 -136 -181 -131 -5 5 19 25 135 115 57 44 97 59 46 16z m4735
-169 c7 -9 10 -18 7 -22 -8 -7 -37 15 -37 28 0 14 16 11 30 -6z m-5010 -40 c0
-9 -65 -64 -69 -59 -6 5 50 64 61 64 4 0 8 -2 8 -5z m-120 -114 c5 -11 10 -25
10 -31 0 -17 -129 -149 -162 -166 -30 -15 -68 -19 -68 -6 0 33 171 222 200
222 5 0 14 -9 20 -19z m5380 -67 c0 -17 -22 -14 -28 4 -2 7 3 12 12 12 9 0 16
-7 16 -16z m95 -114 c43 -53 53 -79 17 -47 -28 25 -87 110 -74 106 7 -2 32
-29 57 -59z m-5871 -160 c-49 -69 -57 -55 -9 16 22 31 41 52 43 46 2 -6 -13
-33 -34 -62z m6021 23 c42 -42 105 -143 105 -170 0 -39 -34 -28 -83 27 -60 66
-94 135 -77 155 17 21 23 19 55 -12z m-6176 -245 c-73 -109 -77 -114 -85 -106
-3 3 20 44 52 90 70 103 74 108 86 108 5 0 -19 -42 -53 -92z m6427 -115 c45
-74 64 -113 56 -113 -8 0 -82 111 -82 124 0 12 16 5 26 -11z m-6646 -157 c0
-15 -18 -31 -26 -23 -7 7 7 37 17 37 5 0 9 -6 9 -14z m-60 -149 c0 -20 -13
-56 -34 -89 -44 -74 -70 -101 -93 -96 -25 5 -21 47 12 113 31 65 68 105 95
105 16 0 20 -6 20 -33z m6964 -156 c49 -95 51 -101 37 -101 -5 0 -14 15 -20
33 -6 17 -27 58 -46 90 -38 63 -40 67 -26 67 5 0 30 -40 55 -89z m141 -280
c14 -35 24 -66 21 -69 -6 -5 -66 123 -66 141 0 21 18 -8 45 -72z m-7385 -85
c0 -2 -14 -37 -31 -77 -29 -70 -49 -104 -49 -84 0 18 64 165 72 165 4 0 8 -2
8 -4z m7482 -138 c9 -24 28 -73 42 -110 14 -38 22 -68 18 -68 -7 0 -35 65 -87
203 -4 9 -3 17 2 17 5 0 16 -19 25 -42z m-7597 -171 c-13 -44 -34 -90 -35 -76
0 8 31 113 37 122 12 20 11 -3 -2 -46z m-80 -238 c-9 -27 -19 -48 -22 -46 -2
3 3 31 13 62 10 31 20 52 22 46 2 -6 -4 -34 -13 -62z m7836 -6 c8 -22 -10 -53
-31 -53 -16 0 -31 40 -25 61 9 27 45 21 56 -8z m-7851 -213 c0 -64 -24 -140
-45 -140 -6 0 -20 9 -30 20 -17 19 -18 27 -7 93 14 81 34 112 63 96 15 -8 19
-21 19 -69z m279 -2361 c13 -78 9 -100 -8 -47 -17 53 -25 118 -14 118 6 0 15
-32 22 -71z m7344 41 c-3 -11 -7 -20 -9 -20 -2 0 -4 9 -4 20 0 11 4 20 9 20 5
0 7 -9 4 -20z m-54 -187 c-12 -37 -24 -62 -26 -56 -3 7 3 37 13 65 19 62 24
71 31 64 3 -2 -5 -35 -18 -73z m-7239 -110 c14 -54 26 -105 28 -113 3 -10 1
-12 -6 -5 -6 6 -20 48 -31 95 -12 47 -24 93 -27 103 -3 9 -1 17 3 17 5 0 20
-44 33 -97z m7149 -142 c-23 -55 -46 -101 -51 -101 -6 0 -8 6 -5 13 3 6 20 46
37 87 50 121 52 126 57 114 2 -6 -15 -57 -38 -113z m-7009 -300 c0 -3 -4 -1
-9 4 -15 15 -81 204 -80 229 0 17 89 -215 89 -233z m6870 47 c0 -7 -5 -20 -10
-28 -8 -12 -10 -9 -10 13 0 15 5 27 10 27 6 0 10 -6 10 -12z m-6790 -204 c22
-47 40 -91 39 -97 0 -15 -88 153 -88 171 -2 28 12 8 49 -74z m6740 72 c0 -17
-73 -125 -81 -120 -7 4 -5 12 4 22 8 10 25 36 37 60 20 35 40 54 40 38z
m-6580 -309 c41 -54 75 -139 66 -164 -15 -39 -146 139 -146 199 0 34 42 16 80
-35z m6420 47 c0 -3 -17 -27 -38 -53 -21 -25 -58 -75 -82 -110 -25 -34 -46
-58 -48 -52 -4 13 145 221 159 221 5 0 9 -3 9 -6z m-6169 -421 c74 -89 83
-103 71 -103 -11 0 -142 158 -142 171 0 16 6 10 71 -68z m5885 42 c16 -41
-158 -215 -216 -215 -16 0 -12 32 9 65 30 47 113 132 146 149 38 20 54 20 61
1z m-296 -273 c0 -9 -37 -44 -60 -57 -8 -5 -1 7 15 27 29 36 45 46 45 30z
m-197 -183 c-23 -21 -48 -39 -55 -39 -7 1 9 21 37 45 61 53 76 49 18 -6z
m-143 -95 c0 -7 -13 -18 -73 -60 -59 -42 -55 -21 5 25 52 39 68 47 68 35z
m-240 -162 c0 -4 -31 -25 -70 -46 -87 -46 -93 -30 -7 18 64 37 77 42 77 28z"/>
<path d="M4925 8933 c-346 -18 -769 -129 -1125 -296 -189 -88 -211 -99 -303
-151 -82 -47 -304 -191 -382 -249 -458 -339 -814 -730 -1045 -1147 -29 -52
-56 -99 -60 -105 -12 -16 -143 -275 -167 -330 -94 -214 -183 -504 -232 -755
-51 -264 -73 -562 -52 -709 12 -79 15 -86 54 -122 23 -22 44 -39 48 -39 10 0
299 -289 299 -299 0 -10 31 -24 38 -17 2 3 -2 67 -9 143 -19 200 -16 585 5
763 70 589 280 1108 640 1581 152 199 198 252 346 399 411 410 791 645 1315
811 101 32 252 66 420 96 151 26 176 27 460 27 281 0 309 -2 445 -27 80 -14
186 -38 235 -53 50 -14 129 -37 177 -50 120 -34 202 -66 342 -134 388 -190
588 -329 862 -604 604 -606 953 -1295 1039 -2056 30 -265 30 -513 -1 -835 -4
-48 -3 -56 7 -41 8 13 13 15 19 6 4 -7 9 0 13 18 4 21 14 31 32 36 14 4 25 11
25 16 0 23 206 210 232 210 8 0 23 9 33 20 10 11 21 17 26 15 16 -10 24 95 24
305 0 232 -10 331 -56 566 -100 514 -328 1043 -638 1474 -216 302 -443 544
-704 753 -491 390 -929 598 -1537 726 -235 50 -533 69 -825 54z"/>
<path d="M4940 8440 c-212 -17 -520 -82 -715 -151 -142 -50 -324 -132 -480
-217 -73 -40 -226 -133 -235 -142 -3 -3 -45 -35 -95 -70 -200 -144 -454 -382
-585 -550 -19 -25 -45 -56 -57 -70 -12 -14 -34 -43 -48 -65 l-27 -39 18 -35
c11 -19 29 -45 42 -58 13 -13 20 -23 16 -23 -4 0 0 -8 8 -17 27 -32 88 -149
88 -171 0 -19 3 -20 30 -10 23 8 34 7 46 -3 28 -23 96 -130 99 -155 3 -32 134
-194 157 -194 15 0 68 -65 93 -115 14 -27 43 -67 64 -87 22 -20 52 -58 67 -85
16 -26 33 -51 38 -55 6 -4 7 -10 4 -14 -4 -4 17 -24 47 -45 29 -22 68 -61 86
-89 17 -27 38 -51 45 -54 25 -9 15 -24 -31 -47 -27 -14 -49 -19 -54 -13 -73
81 -105 144 -81 159 5 3 0 16 -13 29 -19 20 -24 22 -33 10 -10 -12 -19 -6 -51
33 -50 60 -93 124 -93 138 0 6 -23 35 -50 65 -28 30 -59 73 -70 95 -11 22 -43
67 -71 100 -28 33 -58 75 -67 93 -9 18 -23 32 -33 32 -10 0 -33 18 -52 40 -19
22 -38 40 -43 40 -5 0 -20 17 -34 37 -29 41 -64 78 -109 111 -17 13 -43 45
-58 70 -15 26 -37 57 -50 69 -28 26 -16 36 32 27 41 -7 42 -3 12 54 l-23 43
-96 -148 c-301 -463 -467 -957 -500 -1492 -17 -272 8 -681 50 -790 8 -23 13
-24 103 -26 94 -2 214 17 174 27 -11 3 0 4 25 2 35 -3 41 -1 25 6 -15 8 -8 9
29 6 30 -2 43 -1 35 5 -10 6 -7 9 11 10 14 0 19 3 11 6 -9 4 -3 10 18 19 17 7
36 24 43 39 6 14 16 25 22 25 6 0 36 23 66 51 50 45 97 78 117 80 23 3 53 20
53 30 0 6 6 9 14 6 16 -6 36 97 36 185 0 29 5 60 10 68 8 12 10 10 10 -10 0
-40 42 -264 52 -275 4 -5 8 4 9 20 0 17 3 23 6 15 11 -28 28 -35 79 -35 42 0
50 -3 46 -15 -5 -13 -3 -13 11 -1 9 7 31 15 49 17 18 1 35 3 38 4 3 0 -2 5
-10 11 -13 9 -12 10 2 5 25 -8 138 62 152 94 18 42 61 88 101 107 30 14 39 15
57 4 18 -11 24 -9 49 15 35 33 36 42 7 46 -39 6 -31 29 28 87 33 31 67 69 77
84 35 54 60 77 78 72 24 -8 129 90 129 120 0 13 -4 27 -10 30 -5 3 -10 1 -10
-4 0 -24 -34 -9 -77 34 -29 30 -43 51 -39 61 3 9 6 18 6 20 0 2 7 4 15 4 27 0
15 19 -25 40 -21 11 -41 20 -44 20 -7 0 6 -44 18 -59 7 -10 2 -8 -16 3 -15 10
-40 38 -55 62 -15 24 -31 44 -35 44 -17 0 -7 29 12 35 14 4 29 -5 57 -36 20
-22 39 -37 41 -31 3 10 86 -39 95 -56 7 -11 -8 -44 -18 -42 -25 3 -13 -31 20
-55 37 -29 59 -27 33 2 -8 10 -19 25 -24 33 -17 30 40 -15 64 -51 13 -19 27
-34 31 -34 4 0 31 28 60 63 29 34 60 68 70 74 11 6 16 19 14 32 -3 16 15 44
71 106 42 46 76 88 76 94 0 6 15 27 33 46 32 35 107 144 107 156 0 3 13 23 29
43 28 36 102 153 128 203 8 15 19 30 24 33 5 4 6 11 3 17 -5 8 -1 9 10 5 14
-6 17 -3 12 9 -8 22 4 40 15 23 7 -11 9 -10 9 4 0 17 26 73 40 87 3 3 14 23
25 45 11 22 23 42 26 45 14 11 93 163 230 445 l54 110 3 185 c3 196 4 200 54
200 25 0 28 -4 34 -50 4 -27 9 -50 13 -51 3 0 17 -3 31 -5 14 -3 39 -2 57 1
30 5 33 9 39 56 7 50 7 51 37 45 16 -3 33 -6 37 -6 4 0 10 -89 14 -197 6 -195
7 -197 43 -287 50 -127 90 -209 184 -382 89 -164 219 -386 231 -394 4 -3 14
-21 22 -40 8 -19 42 -73 75 -120 34 -47 61 -90 61 -96 0 -7 7 -14 15 -18 8 -3
15 -14 15 -25 0 -11 6 -24 14 -28 19 -10 62 -69 81 -111 24 -51 59 -102 70
-102 27 0 121 -111 110 -129 -8 -13 73 -118 98 -126 10 -4 16 -12 14 -19 -3
-6 4 -22 14 -35 15 -18 22 -21 32 -12 8 6 17 9 20 6 4 -3 5 -2 2 2 -3 3 0 13
7 20 9 11 9 17 -3 24 -11 7 -10 9 7 9 14 0 33 18 59 56 21 30 57 72 80 92 23
20 56 58 74 84 17 26 43 53 58 60 15 7 32 22 38 33 5 11 20 30 32 42 12 12 34
44 47 71 14 27 33 52 43 56 10 3 24 9 31 12 19 8 2 -20 -34 -61 -55 -62 -66
-96 -31 -95 19 1 80 88 74 105 -4 8 -1 17 4 21 6 3 8 15 6 26 -13 47 26 88 63
68 16 -9 24 -2 53 47 29 51 38 93 18 93 -3 0 -28 -29 -54 -65 -27 -36 -53 -65
-58 -65 -13 0 4 30 56 99 23 31 63 92 88 136 25 44 50 79 56 78 5 -2 12 6 16
16 3 11 12 22 20 24 7 3 30 34 50 69 20 35 48 77 61 95 14 18 38 62 54 98 16
36 45 86 65 112 19 25 35 49 35 54 0 12 99 161 127 191 l25 27 -23 38 c-61
101 -241 314 -370 437 -170 164 -404 342 -569 433 -30 17 -82 46 -115 65 -144
82 -385 176 -605 236 -89 24 -312 67 -425 81 -117 15 -384 21 -505 11z m-2281
-3361 c10 -17 17 -38 15 -47 -1 -9 -5 -29 -8 -43 -8 -37 -51 -55 -83 -33 -23
15 -25 21 -20 64 3 27 12 58 19 69 19 31 55 27 77 -10z m-312 -405 c-3 -3 -12
-4 -19 -1 -8 3 -5 6 6 6 11 1 17 -2 13 -5z"/>
<path d="M5060 7355 c-11 -29 -12 -263 -1 -360 l6 -60 63 -3 62 -3 -2 223 -3
223 -58 3 c-54 3 -58 1 -67 -23z"/>
<path d="M4847 6972 c-146 -297 -272 -528 -287 -524 -6 1 -9 -2 -6 -7 9 -14
-33 -81 -50 -81 -8 0 -14 -5 -14 -11 0 -5 5 -7 11 -3 8 4 8 0 0 -15 -7 -11
-16 -21 -21 -21 -6 0 -10 -6 -10 -12 0 -7 -22 -41 -48 -75 -26 -33 -63 -87
-82 -119 -19 -32 -56 -84 -82 -117 -50 -63 -57 -77 -35 -77 16 0 46 39 76 97
11 23 26 45 32 48 16 10 -28 -73 -69 -128 -24 -33 -39 -46 -50 -42 -10 4 -34
-12 -69 -47 -55 -54 -64 -74 -38 -85 19 -7 55 24 55 47 0 18 39 74 46 67 2 -2
-3 -24 -11 -48 -15 -43 -23 -54 -90 -117 -57 -53 -105 -117 -105 -140 0 -29
42 -70 98 -97 23 -11 42 -25 42 -31 0 -13 107 -114 120 -114 5 0 11 12 13 28
4 27 4 27 6 -4 1 -24 9 -35 41 -53 22 -12 40 -17 40 -12 0 6 4 11 10 11 5 0 7
-8 3 -17 -3 -10 -3 -15 2 -11 9 8 87 -21 97 -36 7 -11 14 2 22 44 2 14 4 7 3
-14 -1 -24 3 -41 11 -44 8 -2 12 10 13 40 1 24 5 54 9 68 5 17 8 0 7 -50 -2
-69 0 -75 18 -75 16 0 21 9 26 45 l6 45 1 -53 c2 -45 5 -53 20 -50 9 1 22 -1
29 -5 7 -5 14 7 18 35 6 33 9 38 17 24 5 -9 7 -24 4 -32 -3 -9 -1 -12 4 -9 6
3 10 17 10 30 0 26 18 44 29 28 9 -15 81 -3 81 13 0 8 5 14 11 14 6 0 18 7 27
16 10 11 17 13 20 5 7 -22 32 -11 32 15 0 14 4 23 10 19 6 -3 10 2 11 12 1 12
3 10 8 -7 12 -43 20 104 36 660 24 875 29 1196 18 1203 -5 3 -62 -101 -126
-231z m-260 -564 c-3 -8 -6 -5 -6 6 -1 11 2 17 5 13 3 -3 4 -12 1 -19z m-20
-185 c-3 -10 -5 -2 -5 17 0 19 2 27 5 18 2 -10 2 -26 0 -35z m-148 -50 c-13
-38 -37 -68 -46 -59 -5 4 -1 13 7 19 8 7 21 24 27 40 7 15 15 27 17 27 3 0 1
-12 -5 -27z m-102 -565 c-3 -7 -5 -2 -5 12 0 14 2 19 5 13 2 -7 2 -19 0 -25z
m180 -285 c-3 -10 -5 -4 -5 12 0 17 2 24 5 18 2 -7 2 -21 0 -30z"/>
<path d="M5266 7157 c-14 -58 57 -1517 90 -1846 6 -53 9 -62 19 -48 10 15 14
14 34 -6 18 -18 23 -20 31 -8 14 24 82 2 91 -29 5 -17 8 -1 9 45 2 70 3 70 11
25 5 -25 12 -64 15 -87 6 -40 8 -42 33 -36 14 3 28 8 31 10 2 2 7 38 11 81 3
42 7 61 7 41 4 -87 14 -130 31 -127 12 2 17 20 22 78 l5 75 2 -60 c3 -81 21
-110 23 -35 l1 55 10 -45 c6 -25 11 -46 13 -48 2 -2 19 3 38 12 27 11 37 22
40 43 l4 28 2 -29 c1 -23 4 -27 19 -21 9 4 30 12 46 17 l28 11 -5 76 -6 76 10
-60 c15 -91 12 -89 68 -61 l49 25 -9 38 c-5 21 -8 47 -8 58 1 11 6 -1 13 -27
6 -27 16 -47 21 -47 27 3 95 53 95 70 0 10 5 19 10 19 6 0 10 -5 10 -11 0 -6
19 0 43 14 34 21 42 31 44 57 2 42 8 46 30 21 9 -12 22 -21 28 -21 5 0 -3 12
-18 25 -16 14 -32 23 -37 20 -4 -3 -11 5 -14 18 -3 12 -26 45 -51 72 -43 48
-44 49 -59 30 -8 -11 -17 -17 -20 -14 -15 15 -63 134 -55 137 14 6 11 24 -12
61 -25 41 -36 34 -14 -9 29 -57 9 -42 -24 17 -71 126 -88 154 -103 166 -14 11
-58 82 -58 93 0 3 5 2 10 -1 18 -11 10 10 -10 28 -12 10 -18 22 -15 27 3 6 2
10 -4 10 -6 0 -20 18 -31 40 -23 46 -34 53 -19 13 8 -21 7 -25 -1 -17 -6 6
-12 22 -14 35 -4 29 -40 107 -62 134 -16 20 -16 20 -11 -4 8 -34 -7 -15 -38
47 -14 28 -24 56 -20 61 3 5 0 13 -6 17 -8 5 -9 3 -4 -7 7 -12 6 -12 -7 -1 -8
7 -21 33 -28 57 -7 25 -16 45 -20 45 -5 0 -13 14 -19 31 -6 17 -41 88 -78 158
-37 69 -96 187 -131 261 -35 74 -67 139 -72 143 -4 5 -10 -2 -14 -16z m470
-862 c14 -34 18 -52 9 -44 -9 9 -35 79 -30 79 3 0 13 -16 21 -35z m161 -687
c-3 -8 -6 -5 -6 6 -1 11 2 17 5 13 3 -3 4 -12 1 -19z m10 -95 c-3 -10 -5 -4
-5 12 0 17 2 24 5 18 2 -7 2 -21 0 -30z m10 -80 c-3 -10 -5 -4 -5 12 0 17 2
24 5 18 2 -7 2 -21 0 -30z m-280 -70 c-2 -16 -4 -3 -4 27 0 30 2 43 4 28 2
-16 2 -40 0 -55z m190 -40 c-2 -16 -4 -5 -4 22 0 28 2 40 4 28 2 -13 2 -35 0
-50z"/>
<path d="M7585 7091 c-3 -6 -14 -35 -25 -65 -10 -30 -36 -81 -57 -113 -21 -32
-54 -87 -74 -123 -19 -36 -41 -64 -48 -62 -27 6 -48 -9 -65 -46 -20 -42 -116
-194 -129 -203 -5 -4 -3 -16 4 -27 11 -18 11 -24 -4 -39 -10 -10 -35 -46 -56
-80 -27 -41 -45 -61 -57 -60 -13 2 -19 -5 -20 -20 -1 -22 -55 -100 -108 -156
-14 -15 -26 -34 -26 -41 0 -17 -71 -126 -98 -150 -12 -11 -22 -15 -22 -11 0
14 -41 -29 -57 -59 -15 -28 -16 -29 -29 -11 -7 10 -11 22 -8 26 15 26 -27 -10
-64 -53 -28 -33 -40 -54 -34 -60 18 -18 47 -3 71 34 13 21 28 35 33 32 12 -7
-50 -84 -84 -103 -17 -10 -29 -27 -33 -49 -4 -24 -17 -40 -47 -60 -22 -15 -50
-36 -63 -48 -12 -11 -26 -19 -31 -17 -5 1 -22 -9 -39 -23 -29 -24 -30 -25 -10
-40 11 -8 29 -22 40 -32 11 -9 39 -29 62 -44 23 -15 48 -39 56 -55 9 -15 27
-39 41 -52 14 -14 26 -30 26 -37 0 -7 20 -24 45 -38 25 -15 45 -30 45 -34 0
-4 24 -20 53 -35 36 -19 63 -44 87 -79 26 -38 54 -63 108 -95 40 -23 70 -38
67 -33 -4 6 8 10 27 11 70 2 113 9 164 25 46 14 54 21 60 48 l8 31 6 -30 c6
-31 9 -20 38 165 l8 55 8 -90 c4 -49 11 -110 16 -135 l8 -45 2 40 c1 22 4 33
7 25 13 -42 27 -60 35 -48 5 9 8 5 9 -12 0 -14 3 -20 5 -14 6 15 45 6 61 -13
7 -9 19 -12 32 -8 14 4 23 0 31 -15 6 -11 8 -25 5 -30 -6 -9 8 -14 28 -11 4 0
7 -8 7 -19 0 -11 3 -20 8 -20 4 0 22 -9 41 -21 27 -17 32 -23 20 -31 -12 -8
-12 -9 1 -5 8 2 29 -3 45 -11 17 -9 32 -17 35 -17 3 -1 12 -4 20 -8 8 -3 27
-8 43 -11 28 -7 36 -21 15 -29 -18 -6 33 3 56 10 12 3 16 1 12 -6 -4 -6 0 -11
9 -11 9 0 13 -5 9 -11 -5 -8 -1 -8 14 0 26 14 65 16 130 7 40 -6 52 -5 52 6 0
8 5 6 11 -6 11 -17 12 -16 24 10 19 42 45 282 52 479 16 473 -95 963 -331
1459 -95 201 -265 472 -281 447z m12 -1708 c-1 -43 -3 -10 -3 72 0 83 2 118 3
78 2 -40 2 -107 0 -150z m0 -140 c-3 -10 -5 -4 -5 12 0 17 2 24 5 18 2 -7 2
-21 0 -30z m39 -165 c20 -39 13 -104 -13 -123 -52 -40 -95 1 -83 79 12 78 66
103 96 44z"/>
<path d="M7503 7015 c-53 -54 -73 -93 -53 -105 7 -4 19 -6 26 -3 16 6 78 127
73 141 -2 5 -23 -10 -46 -33z"/>
<path d="M2717 6973 c-16 -16 -4 -42 42 -87 34 -33 55 -47 66 -42 15 5 14 10
-7 47 -40 72 -80 104 -101 82z"/>
<path d="M7380 6845 c-17 -30 -35 -57 -41 -60 -14 -9 -11 -28 5 -22 7 3 18 1
24 -5 8 -8 20 4 41 37 26 42 29 51 17 64 -7 9 -11 22 -9 29 11 29 -8 8 -37
-43z"/>
<path d="M5080 6833 c-26 -10 -30 -26 -30 -126 0 -129 5 -137 80 -137 41 0 60
4 61 13 1 6 1 62 0 122 -2 88 -6 112 -19 123 -16 12 -65 15 -92 5z"/>
<path d="M2902 6797 c-11 -12 -11 -21 -1 -39 27 -54 60 -88 85 -88 38 0 30 32
-24 91 -42 45 -49 50 -60 36z"/>
<path d="M7121 6442 c-7 -15 -27 -49 -46 -76 -39 -54 -42 -66 -19 -66 44 0 93
70 94 132 0 38 -16 43 -29 10z"/>
<path d="M5066 6444 c-13 -12 -16 -41 -16 -149 0 -156 1 -158 98 -153 l57 3 3
137 c2 127 1 139 -18 158 -25 25 -101 28 -124 4z"/>
<path d="M3187 6428 c-10 -28 53 -108 85 -108 10 0 18 3 18 8 0 11 -35 64 -59
90 -25 25 -37 28 -44 10z"/>
<path d="M5680 6411 c0 -6 4 -13 10 -16 6 -3 7 1 4 9 -7 18 -14 21 -14 7z"/>
<path d="M3320 6270 c0 -5 5 -10 11 -10 5 0 7 5 4 10 -3 6 -8 10 -11 10 -2 0
-4 -4 -4 -10z"/>
<path d="M3334 6215 c-7 -16 6 -37 55 -95 l29 -35 7 27 c8 31 -23 91 -55 108
-25 13 -30 13 -36 -5z"/>
<path d="M5890 6071 c0 -6 4 -13 10 -16 6 -3 7 1 4 9 -7 18 -14 21 -14 7z"/>
<path d="M5916 6027 c3 -10 9 -15 12 -12 3 3 0 11 -7 18 -10 9 -11 8 -5 -6z"/>
<path d="M3500 5999 c0 -12 14 -40 32 -63 17 -22 33 -42 34 -44 4 -7 44 23 44
33 0 17 -79 95 -95 95 -9 0 -15 -9 -15 -21z"/>
<path d="M5080 6008 c-25 -13 -25 -15 -28 -163 -2 -132 -1 -151 15 -162 19
-15 121 -17 141 -4 21 13 13 295 -9 316 -22 22 -88 29 -119 13z"/>
<path d="M5960 5982 c0 -12 19 -26 26 -19 2 2 -2 10 -11 17 -9 8 -15 8 -15 2z"/>
<path d="M5999 5903 c12 -24 31 -39 31 -25 0 5 -10 17 -21 28 -22 19 -22 19
-10 -3z"/>
<path d="M6100 5759 c0 -41 29 -79 63 -79 25 0 21 17 -14 61 -34 44 -49 49
-49 18z"/>
<path d="M4060 5711 c-88 -91 -113 -122 -103 -132 7 -7 14 0 23 20 6 16 26 39
43 51 36 25 70 66 65 79 -2 5 -14 -3 -28 -18z"/>
<path d="M6517 5657 c-31 -26 -38 -38 -35 -61 l3 -29 43 39 c36 32 42 43 35
61 -8 22 -8 22 -46 -10z"/>
<path d="M3845 5490 c-33 -28 -66 -50 -74 -50 -21 0 -71 -50 -71 -71 0 -29 18
-32 51 -9 17 13 32 35 36 52 5 24 10 29 27 24 13 -3 29 2 43 16 19 17 23 18
23 6 0 -14 -66 -77 -145 -137 -16 -12 -39 -41 -50 -64 -15 -29 -31 -44 -51
-50 -31 -9 -132 -137 -126 -160 2 -7 1 -9 -3 -5 -4 3 -23 -5 -42 -18 -20 -13
-48 -24 -62 -25 -49 -1 -65 -8 -92 -37 -30 -32 -28 -53 3 -25 17 15 18 15 18
-1 0 -16 2 -16 22 -2 12 9 37 16 55 16 18 0 33 5 33 11 0 5 -3 8 -7 6 -5 -3
-14 1 -21 9 -16 18 -13 17 31 -1 42 -17 58 -19 37 -4 -12 9 -11 10 8 6 12 -3
22 -2 22 1 0 4 25 7 55 6 30 0 55 3 55 8 0 5 4 7 9 4 5 -4 12 33 16 81 6 90
26 164 24 93 -2 -75 4 -214 8 -192 4 19 11 22 49 22 24 0 45 0 47 1 30 11 87
14 91 5 3 -7 8 -6 15 4 6 8 11 11 11 5 0 -5 5 -3 10 6 9 15 25 90 50 232 7 37
14 66 16 64 3 -2 -2 -44 -10 -93 -23 -140 -27 -191 -16 -174 8 13 11 13 19 1
7 -11 10 -10 14 5 4 16 5 15 6 -4 0 -13 6 -20 11 -17 6 3 10 1 10 -6 0 -7 3
-10 6 -6 9 8 34 240 34 313 0 51 -4 64 -24 84 l-25 23 -5 -24 c-3 -13 -7 -40
-9 -59 -2 -19 -5 -1 -5 41 -2 68 -5 80 -29 108 -15 17 -30 31 -33 31 -3 0 -32
-23 -65 -50z m-475 -520 c0 -5 -5 -10 -11 -10 -5 0 -7 5 -4 10 3 6 8 10 11 10
2 0 4 -4 4 -10z"/>
<path d="M5062 5514 c-21 -14 -22 -22 -22 -154 l0 -138 78 2 c42 2 84 5 92 7
31 9 42 59 34 167 -5 88 -9 105 -27 117 -29 20 -126 20 -155 -1z"/>
<path d="M4040 5451 c0 -15 61 -72 73 -68 6 2 13 9 15 15 2 7 -2 10 -12 6 -11
-4 -15 -2 -11 8 3 8 0 19 -7 25 -20 16 -58 26 -58 14z"/>
<path d="M6315 5450 c-3 -5 -1 -10 4 -10 6 0 11 5 11 10 0 6 -2 10 -4 10 -3 0
-8 -4 -11 -10z"/>
<path d="M6250 5424 c-19 -14 -42 -29 -50 -34 -20 -12 -6 -23 18 -16 19 6 82
61 82 71 0 10 -16 3 -50 -21z"/>
<path d="M6285 5393 c-27 -19 -63 -45 -78 -58 -15 -13 -45 -32 -67 -41 -21 -9
-41 -25 -43 -35 -3 -13 -25 -24 -67 -36 -60 -16 -62 -17 -56 -46 3 -16 6 -41
6 -56 0 -19 3 -22 9 -12 6 10 17 11 37 6 16 -5 34 -7 40 -6 7 1 16 -16 22 -36
8 -31 9 -24 5 42 -5 97 13 84 24 -17 5 -49 8 -57 14 -38 4 14 7 20 8 13 1 -7
15 -11 36 -10 l35 2 0 80 c0 55 3 75 10 65 5 -8 10 -31 10 -50 0 -19 3 -52 6
-72 6 -37 8 -38 50 -38 28 0 44 -5 45 -12 0 -7 4 -4 9 7 5 11 9 14 9 7 1 -10
6 -10 21 -2 18 10 20 21 20 108 0 128 -16 233 -38 253 -16 15 -21 13 -67 -18z"/>
<path d="M6419 5397 c-14 -11 -14 -14 3 -31 18 -19 18 -19 18 12 0 36 1 36
-21 19z"/>
<path d="M4050 5343 c0 -27 -3 -111 -6 -188 -5 -138 -5 -140 13 -119 19 22
100 38 106 21 1 -4 10 -2 19 5 10 8 24 45 34 88 28 128 28 127 5 135 -12 3
-21 14 -21 23 0 12 -3 13 -12 4 -9 -9 -23 -2 -62 26 -28 20 -52 40 -54 44 -10
23 -22 2 -22 -39z"/>
<path d="M4140 5380 c0 -5 5 -10 11 -10 5 0 7 5 4 10 -3 6 -8 10 -11 10 -2 0
-4 -4 -4 -10z"/>
<path d="M6461 5361 c6 -16 21 -38 34 -51 19 -18 27 -20 44 -11 12 7 21 14 21
16 0 7 -92 75 -101 75 -4 0 -3 -13 2 -29z"/>
<path d="M6123 5342 c-43 -27 -61 -68 -25 -55 42 16 79 48 73 65 -5 15 -10 14
-48 -10z"/>
<path d="M6393 5335 c4 -22 9 -92 12 -155 8 -140 13 -170 26 -149 7 11 9 10
10 -6 0 -11 3 -15 5 -9 3 8 16 9 42 3 47 -11 172 0 172 15 0 6 5 4 10 -4 7
-11 10 1 11 40 1 59 2 57 28 -45 6 -22 9 -28 7 -12 -2 15 1 27 6 27 5 0 6 4 3
10 -3 6 1 7 10 3 13 -5 14 -8 3 -15 -10 -7 -10 -8 2 -6 8 2 31 -8 50 -22 19
-13 2 8 -37 47 -40 39 -73 76 -73 83 0 14 -40 49 -56 50 -6 0 -30 20 -53 45
-27 30 -46 42 -57 38 -10 -4 -34 12 -71 48 l-55 54 5 -40z"/>
<path d="M4145 5350 c3 -5 8 -10 11 -10 2 0 4 5 4 10 0 6 -5 10 -11 10 -5 0
-7 -4 -4 -10z"/>
<path d="M3633 5305 c-17 -7 -37 -23 -43 -35 -13 -25 -13 -25 17 -34 36 -11
95 59 65 78 -4 2 -21 -2 -39 -9z"/>
<path d="M6031 5281 c-7 -5 -10 -14 -7 -20 4 -6 -3 -15 -16 -20 -14 -6 -17
-10 -7 -10 8 -1 24 6 35 14 14 11 16 15 4 15 -12 0 -10 4 4 15 21 16 10 21
-13 6z"/>
<path d="M4247 5236 c-3 -8 -9 -46 -13 -84 l-6 -71 38 -6 c88 -14 84 -14 84
15 0 15 3 47 6 71 l6 44 -51 23 c-60 26 -57 26 -64 8z"/>
<path d="M4385 5243 c11 -3 26 -10 33 -15 8 -7 12 -7 12 0 0 12 -25 22 -48 21
-13 -1 -12 -3 3 -6z"/>
<path d="M5895 5187 c-59 -25 -60 -26 -54 -32 3 -2 20 -1 37 4 31 9 38 5 33
-23 -1 -5 5 -4 13 4 14 11 16 9 16 -8 0 -12 5 -24 10 -27 6 -4 10 15 10 49 0
31 -3 56 -7 55 -5 -1 -30 -11 -58 -22z"/>
<path d="M4374 5163 c2 -15 4 -36 5 -45 2 -28 40 -12 54 22 4 12 6 12 6 -2 2
-30 18 -28 18 3 0 25 -3 28 -20 23 -13 -4 -17 -2 -13 5 4 6 1 11 -8 11 -8 0
-21 3 -30 6 -12 4 -14 -1 -12 -23z"/>
<path d="M4476 5143 c-4 -9 -3 -20 2 -25 4 -4 9 4 10 17 2 29 -3 32 -12 8z"/>
<path d="M5855 5139 c-9 -14 -5 -17 28 -23 16 -3 25 -1 22 5 -4 5 -14 9 -23
10 -14 0 -13 2 3 9 19 8 19 9 -2 9 -12 1 -25 -4 -28 -10z"/>
<path d="M3441 5114 c-29 -24 -44 -53 -20 -38 8 5 10 -1 7 -20 -4 -21 -2 -26
10 -24 17 3 82 82 82 99 0 19 -49 8 -79 -17z"/>
<path d="M6730 5121 c0 -10 89 -81 102 -81 26 0 -20 60 -59 76 -38 16 -43 17
-43 5z"/>
<path d="M5078 5101 c-59 -7 -81 -16 -190 -81 -68 -40 -142 -86 -165 -102 -24
-16 -43 -25 -43 -20 0 5 11 14 25 20 14 6 25 16 25 21 0 5 -12 3 -27 -4 -16
-8 -35 -12 -44 -10 -17 6 -128 -17 -150 -30 -8 -5 -10 -4 -5 3 4 7 1 12 -8 12
-8 0 -18 -5 -22 -11 -3 -6 -17 -8 -29 -5 -14 4 -25 1 -28 -7 -4 -9 -8 -9 -15
2 -8 11 -10 11 -15 0 -3 -9 -6 -7 -6 5 -1 19 -1 19 -14 1 -9 -12 -16 -14 -21
-7 -4 8 -13 5 -26 -8 -11 -11 -31 -20 -45 -20 -13 0 -29 -8 -34 -17 -10 -17
-10 -16 -11 2 0 16 -2 17 -10 5 -10 -16 -11 -15 -29 15 -11 18 -12 18 -8 -7 2
-16 0 -28 -4 -28 -5 0 -9 8 -9 18 0 10 -3 13 -8 6 -10 -15 -79 -37 -92 -29 -5
3 -10 -1 -10 -9 0 -9 -5 -16 -11 -16 -5 0 -7 5 -3 12 5 7 3 8 -7 2 -16 -10
-18 -10 -117 -25 -39 -5 -88 -17 -107 -25 -19 -7 -43 -14 -54 -14 -11 0 -26
-7 -35 -15 -8 -8 -22 -12 -30 -9 -10 4 -16 1 -16 -7 0 -12 -2 -12 -9 0 -6 10
-11 1 -16 -28 -7 -44 -25 -56 -25 -17 0 49 -96 61 -258 33 -55 -10 -156 -49
-175 -69 -10 -10 -21 -18 -25 -18 -4 0 -27 -18 -52 -40 -25 -22 -53 -42 -62
-46 -10 -3 -18 -10 -18 -15 0 -6 -4 -7 -10 -4 -6 3 -10 -4 -10 -17 0 -19 -2
-20 -10 -8 -8 13 -11 13 -19 1 -5 -7 -14 -11 -20 -7 -7 5 -9 1 -5 -8 3 -9 2
-16 -4 -16 -6 0 -13 -17 -17 -38 -10 -63 -22 -71 -30 -19 -6 41 -11 47 -45 61
-21 8 -41 20 -45 26 -3 5 -14 10 -24 10 -10 0 -24 7 -31 15 -18 22 -76 48
-110 49 -15 1 -26 5 -22 10 3 5 -24 7 -64 3 -44 -3 -57 -3 -36 3 48 11 54 24
7 16 -51 -9 -106 -15 -83 -9 10 2 18 8 18 12 0 10 -218 -32 -247 -47 -12 -7
-34 -12 -49 -12 -24 0 -25 -2 -13 -17 12 -15 12 -16 -5 -10 -18 7 -18 3 -11
-65 17 -182 102 -478 209 -733 72 -169 257 -477 373 -620 121 -148 271 -305
373 -390 80 -67 381 -292 417 -312 24 -14 153 -82 228 -121 28 -14 57 -31 65
-37 8 -7 68 -35 132 -63 501 -221 1088 -295 1633 -206 145 23 364 77 485 119
103 36 123 44 308 132 51 24 98 41 104 37 7 -5 8 -2 3 6 -6 10 -4 12 11 6 10
-4 15 -4 11 0 -6 6 53 54 66 54 8 0 141 88 174 115 18 15 38 23 44 19 7 -4 9
-3 6 3 -9 14 19 37 34 27 8 -5 9 -3 4 6 -6 10 -4 12 8 7 12 -4 14 -2 10 10 -4
11 -2 14 5 9 7 -4 12 -2 12 4 0 6 5 8 10 5 6 -3 10 -2 10 4 0 5 13 18 29 27
17 10 28 21 25 25 -2 4 4 10 15 14 11 3 27 17 36 31 9 14 23 23 30 20 8 -3 12
0 10 7 -3 7 14 28 37 46 37 31 41 32 36 13 -4 -12 -2 -20 3 -16 5 3 9 17 9 31
0 17 4 23 14 20 8 -3 13 1 12 10 0 9 5 18 13 21 8 3 11 0 7 -7 -4 -6 -2 -11 4
-11 7 0 10 6 7 14 -7 17 16 39 28 28 5 -4 5 -2 2 5 -4 6 13 32 40 60 41 41
133 146 192 218 164 203 339 473 423 655 93 200 117 260 161 400 67 216 100
387 72 376 -7 -2 -16 2 -19 10 -3 8 -16 14 -28 14 -13 0 -34 3 -47 7 -23 6
-23 7 -5 13 12 5 -6 10 -51 14 -38 4 -83 11 -100 16 -36 11 -265 5 -315 -9
-19 -5 -66 -20 -105 -34 l-70 -25 -9 -51 c-11 -57 -26 -68 -26 -18 0 17 -6 52
-14 77 -11 37 -14 41 -17 21 -4 -23 -5 -23 -20 -9 -9 9 -34 24 -55 33 -21 9
-48 24 -59 34 -41 37 -184 103 -271 125 -81 21 -160 21 -168 1 -8 -22 -26 -18
-26 5 0 13 -9 21 -27 25 -41 8 -123 35 -163 53 -50 22 -108 32 -114 18 -3 -7
-9 -4 -16 7 -6 9 -15 15 -21 12 -5 -4 -9 0 -9 7 0 9 -3 10 -8 2 -5 -8 -19 -8
-54 1 -41 10 -48 10 -51 -4 -3 -9 -5 -6 -7 9 -1 23 -2 23 -10 5 l-9 -20 -1 20
c-1 16 -4 14 -14 -10 l-13 -30 -11 35 c-6 19 -11 29 -11 23 -1 -16 -43 -17
-59 -1 -9 9 -12 9 -12 -3 0 -12 -2 -12 -10 1 -9 13 -11 13 -20 0 -7 -11 -12
-12 -17 -4 -5 7 -19 11 -32 10 -19 -1 -27 6 -33 24 -7 22 -7 21 -5 -7 3 -25 1
-30 -9 -22 -8 7 -14 6 -18 -3 -3 -7 -3 1 0 17 4 24 3 27 -6 13 -8 -14 -16 -15
-41 -6 -16 6 -33 8 -36 4 -3 -3 -12 -1 -18 4 -7 6 -56 12 -110 13 -73 3 -101
7 -109 19 -6 8 -17 13 -23 11 -7 -3 -33 6 -58 18 -25 12 -47 20 -51 17 -3 -4
-53 19 -111 49 -115 60 -158 68 -295 54z m12 -16 c0 -3 -16 -35 -35 -70 -49
-89 -120 -250 -224 -510 -49 -121 -118 -284 -153 -361 -36 -76 -70 -155 -78
-174 -7 -19 -21 -53 -31 -75 -39 -91 -49 -118 -44 -123 3 -3 -1 -12 -8 -21
-14 -17 -36 -71 -88 -216 -17 -49 -38 -103 -45 -120 -7 -16 -21 -53 -33 -81
-11 -28 -29 -67 -40 -85 -12 -19 -21 -43 -21 -55 0 -11 -11 -43 -25 -70 -14
-27 -25 -57 -25 -66 0 -10 -4 -18 -9 -18 -5 0 -14 -15 -21 -32 -6 -18 -27 -68
-46 -111 -19 -43 -34 -83 -34 -89 0 -5 -16 -43 -35 -84 -19 -40 -35 -75 -35
-78 0 -17 -68 -145 -74 -139 -4 4 -4 0 0 -10 3 -9 2 -17 -3 -17 -6 0 -16 -18
-23 -40 -7 -22 -20 -47 -29 -57 -9 -10 -27 -43 -39 -74 -20 -49 -26 -56 -50
-54 -35 2 -301 140 -334 173 -8 8 -4 20 14 44 13 18 55 89 93 158 37 69 82
150 100 180 18 30 76 134 130 230 54 96 122 216 150 265 64 111 288 505 405
715 48 85 115 202 150 260 62 105 75 127 235 378 47 74 82 139 78 144 -3 6 -1
8 5 4 6 -3 13 3 17 14 3 11 11 20 16 20 5 0 9 4 9 9 0 5 18 37 40 71 23 33 38
64 35 69 -8 15 6 41 29 53 20 10 20 10 -1 -11 -21 -20 -30 -41 -18 -41 3 0 17
19 32 43 15 23 32 45 38 49 12 9 25 10 25 3z m180 -22 c12 -16 27 -28 33 -28
7 0 26 -21 42 -47 17 -25 51 -79 77 -120 55 -84 173 -262 219 -328 17 -25 62
-92 100 -150 150 -229 336 -485 300 -413 -13 26 -14 36 -2 28 5 -3 16 2 24 10
13 13 19 10 49 -23 18 -20 55 -66 82 -102 27 -36 73 -92 101 -125 29 -33 99
-118 156 -190 l105 -130 -91 -1 -91 -1 -80 124 c-43 68 -108 163 -142 211 -35
48 -78 110 -96 137 -18 28 -66 96 -107 152 -145 199 -236 335 -402 598 -27 43
-55 84 -61 91 -10 11 -82 122 -147 228 -17 26 -33 46 -36 42 -3 -3 1 -14 9
-23 9 -10 28 -40 44 -68 15 -27 64 -106 109 -175 89 -136 188 -293 305 -483
42 -67 113 -178 159 -246 46 -69 118 -181 160 -250 43 -69 102 -164 132 -211
31 -47 119 -186 196 -310 77 -124 175 -281 218 -350 43 -69 112 -178 152 -243
70 -111 82 -147 51 -147 -15 0 -34 30 -390 625 -148 248 -290 484 -316 525
-25 41 -85 140 -134 220 -48 79 -93 149 -99 155 -14 12 -15 13 54 -105 30 -52
74 -129 97 -170 276 -482 456 -792 597 -1027 40 -68 73 -125 73 -128 0 -2 16
-29 35 -59 19 -30 35 -59 35 -63 0 -5 -55 -45 -122 -89 -150 -99 -198 -128
-198 -119 0 4 -6 2 -14 -4 -11 -9 -15 -6 -20 14 -4 14 -11 25 -16 25 -5 0 -6
7 -3 17 5 12 3 14 -7 8 -10 -6 -12 -3 -8 13 4 12 2 22 -3 22 -11 0 -60 95 -54
104 3 3 2 4 -2 1 -8 -7 -73 128 -114 240 -54 143 -80 207 -116 277 -7 14 -13
33 -13 42 0 9 -4 16 -10 16 -5 0 -10 7 -10 15 0 8 -4 23 -9 33 -25 45 -62 135
-68 162 -3 17 -10 33 -14 36 -5 3 -9 14 -9 25 0 10 -4 27 -10 37 -16 29 -46
102 -80 197 -18 50 -37 92 -41 93 -5 2 -9 9 -9 15 0 7 -20 57 -44 112 -24 55
-105 249 -180 430 -166 406 -240 575 -339 774 -53 106 -51 101 -39 101 6 0 20
-12 32 -27z m-320 -112 c-29 -42 -36 -39 -8 3 13 19 24 33 26 31 3 -2 -6 -18
-18 -34z m-290 -35 c0 -3 -4 -8 -10 -11 -5 -3 -10 -1 -10 4 0 6 5 11 10 11 6
0 10 -2 10 -4z m220 -60 c-22 -30 -37 -61 -34 -69 2 -8 -3 -20 -13 -28 -16
-13 -17 -12 -4 4 8 9 12 20 9 23 -6 6 -89 -104 -175 -231 -125 -185 -392 -593
-448 -685 -33 -52 -79 -124 -104 -160 -170 -244 -418 -613 -461 -685 -13 -22
-61 -97 -107 -167 -98 -147 -109 -154 -235 -149 -42 1 -86 -3 -98 -9 -44 -24
-26 4 160 245 25 33 111 146 190 250 240 316 427 552 397 500 -3 -6 -2 -17 4
-25 7 -12 9 -12 9 -1 0 8 6 11 18 6 14 -5 15 -4 5 6 -7 7 -13 18 -13 24 0 5 9
-3 19 -18 11 -18 21 -25 25 -18 11 18 26 13 19 -6 -11 -27 55 46 89 98 l16 26
-56 2 c-31 1 -57 3 -59 5 -6 5 141 207 194 267 40 45 53 55 67 47 12 -7 18 -5
22 6 3 9 11 16 16 16 6 0 7 -8 3 -17 -5 -15 -3 -15 12 2 32 34 73 99 73 115 0
9 -3 11 -8 5 -4 -6 -14 -10 -22 -10 -8 1 -21 -4 -29 -9 -29 -22 -4 19 84 134
47 63 120 150 161 192 41 43 74 79 74 82 0 2 13 19 30 38 16 18 68 81 116 141
90 113 122 144 54 53z m-60 -120 c0 -2 -8 -10 -17 -17 -16 -13 -17 -12 -4 4
13 16 21 21 21 13z m-46 -63 c-10 -16 -40 -66 -67 -113 -27 -47 -69 -116 -94
-155 -62 -98 -160 -264 -260 -440 -47 -82 -115 -199 -151 -260 -36 -60 -118
-200 -182 -310 -65 -110 -151 -256 -192 -325 -42 -69 -140 -234 -219 -367 -79
-134 -146 -243 -149 -243 -3 0 -13 7 -23 14 -16 13 -6 32 136 262 85 137 197
317 250 399 110 172 255 409 472 775 166 278 328 544 366 601 13 20 45 71 72
113 26 42 50 76 53 76 4 0 -2 -12 -12 -27z m807 10 c13 -16 12 -17 -3 -4 -10
7 -18 15 -18 17 0 8 8 3 21 -13z m52 -76 c-4 -7 -8 -6 -11 3 -3 8 -12 24 -21
35 -11 14 -8 13 11 -4 15 -13 24 -29 21 -34z m21 -15 c3 -5 -1 -9 -9 -9 -8 0
-12 4 -9 9 3 4 7 8 9 8 2 0 6 -4 9 -8z m-3269 -22 c-11 -5 -27 -9 -35 -9 -9 0
-8 4 5 9 11 5 27 9 35 9 9 0 8 -4 -5 -9z m3319 -58 c6 -7 19 -21 29 -30 10 -9
36 -40 58 -69 35 -45 39 -54 28 -72 -13 -19 -14 -19 -36 14 -13 19 -23 37 -23
41 0 4 -11 22 -26 41 -14 18 -22 33 -19 33 4 0 -7 17 -24 37 -16 20 -27 41
-24 46 3 5 10 1 16 -9 6 -10 15 -25 21 -32z m-892 -214 c-7 -7 -12 -8 -12 -2
0 6 3 14 7 17 3 4 9 5 12 2 2 -3 -1 -11 -7 -17z m1104 -61 c93 -110 98 -119
79 -133 -23 -17 -33 -9 -92 70 -34 46 -41 62 -32 72 16 19 22 18 45 -9z m-356
-30 c0 -18 -2 -19 -10 -7 -13 20 -13 43 0 35 6 -3 10 -16 10 -28z m-780 -4 c0
-5 -5 -15 -10 -23 -8 -12 -10 -11 -10 8 0 12 5 22 10 22 6 0 10 -3 10 -7z
m820 -97 c0 -8 -4 -18 -10 -21 -5 -3 -10 -4 -10 -1 0 2 -3 11 -6 20 -4 11 -1
16 10 16 9 0 16 -6 16 -14z m-870 -52 c0 -15 -6 -24 -15 -24 -17 0 -18 4 -9
37 8 29 24 20 24 -13z m915 -94 c13 -25 13 -30 1 -30 -14 0 -26 21 -26 46 0
22 8 17 25 -16z m-965 -32 c0 -25 -12 -58 -21 -58 -10 0 -12 53 -2 63 10 11
23 8 23 -5z m1026 -151 c7 -20 9 -39 5 -41 -14 -9 -29 10 -36 48 -10 51 13 46
31 -7z m-1066 -76 c0 -38 -30 -91 -51 -91 -18 0 -20 4 -14 33 4 17 11 42 16
55 11 28 49 30 49 3z m1136 -162 c11 -35 10 -39 -5 -39 -10 0 -25 15 -34 35
-21 44 -21 43 1 47 23 6 25 3 38 -43z m804 -126 c0 -5 13 -21 28 -38 46 -49
468 -578 481 -604 12 -22 9 -28 -59 -93 -61 -59 -74 -67 -87 -56 -24 20 -119
151 -201 278 -41 63 -118 180 -171 260 -52 80 -104 159 -114 175 l-18 30 21
-24 21 -25 -7 29 c-5 19 -4 26 4 21 6 -4 26 7 44 23 31 29 58 40 58 24z
m-2042 -38 c2 -2 -6 -35 -18 -74 -21 -71 -21 -71 -56 -71 -25 0 -35 4 -32 13
3 6 15 43 28 80 21 66 23 68 49 62 14 -4 27 -8 29 -10z m1322 -51 c11 -25 20
-52 20 -59 0 -11 -50 -28 -59 -20 -2 2 -9 29 -16 59 -13 56 -11 63 23 65 7 1
22 -20 32 -45z m170 -493 c11 -22 100 -257 100 -266 0 -3 -26 -5 -58 -5 l-58
0 -38 128 c-21 70 -40 135 -43 145 -7 27 82 25 97 -2z m-1660 -78 c0 -10 -16
-75 -36 -145 l-37 -128 -58 0 c-72 0 -72 3 -28 122 17 45 38 102 46 126 16 42
16 42 64 42 40 0 49 -3 49 -17z m-1064 -159 c23 -18 45 -30 50 -26 5 4 4 0 -3
-7 -10 -11 -21 -7 -62 29 -78 65 -65 68 15 4z"/>
<path d="M5849 4115 c5 -11 17 -29 26 -40 l16 -20 -10 20 c-5 11 -17 29 -26
40 l-16 20 10 -20z"/>
<path d="M6560 3389 c0 -5 5 -7 10 -4 6 3 10 8 10 11 0 2 -4 4 -10 4 -5 0 -10
-5 -10 -11z"/>
<path d="M4222 5045 c0 -16 2 -22 5 -12 2 9 2 23 0 30 -3 6 -5 -1 -5 -18z"/>
<path d="M6735 5010 c3 -5 8 -10 11 -10 2 0 4 5 4 10 0 6 -5 10 -11 10 -5 0
-7 -4 -4 -10z"/>
<path d="M3256 4931 c-4 -6 -2 -11 5 -11 8 0 8 -4 -1 -15 -7 -9 -8 -15 -2 -15
14 0 22 24 12 39 -5 9 -10 10 -14 2z"/>
<path d="M7105 4930 c3 -5 8 -10 11 -10 2 0 4 5 4 10 0 6 -5 10 -11 10 -5 0
-7 -4 -4 -10z"/>
<path d="M7858 4693 c7 -3 16 -2 19 1 4 3 -2 6 -13 5 -11 0 -14 -3 -6 -6z"/>
<path d="M7996 4688 c3 -4 0 -8 -7 -8 -7 0 -10 -2 -8 -4 2 -3 20 -1 39 3 l35
7 -32 5 c-18 3 -30 2 -27 -3z"/>
<path d="M2498 4603 c6 -2 18 -2 25 0 6 3 1 5 -13 5 -14 0 -19 -2 -12 -5z"/>
<path d="M8216 4432 c-73 -267 -196 -606 -267 -738 -112 -207 -148 -270 -207
-359 -36 -55 -69 -102 -72 -105 -4 -3 -19 -23 -33 -46 -14 -22 -31 -47 -39
-55 -7 -8 -29 -34 -48 -59 -19 -25 -37 -47 -40 -50 -3 -3 -40 -45 -82 -95 -79
-93 -248 -264 -353 -355 -33 -29 -71 -62 -85 -74 -118 -102 -342 -251 -520
-345 -233 -122 -445 -198 -745 -265 -320 -72 -754 -85 -1063 -31 -426 75 -748
201 -1217 477 -79 47 -261 173 -285 198 -3 3 -30 25 -60 50 -99 81 -302 288
-294 301 4 7 3 9 -4 5 -13 -8 -42 32 -36 49 3 7 1 16 -5 20 -7 4 -8 -1 -4 -12
5 -15 4 -16 -8 -5 -8 7 -14 16 -14 20 0 5 -11 19 -25 33 -98 100 -262 354
-375 584 -121 246 -182 412 -265 729 -22 82 -42 151 -45 155 -4 3 -11 -2 -16
-12 -6 -9 -26 -24 -45 -32 -19 -8 -41 -20 -48 -27 -7 -7 -41 -38 -76 -68 -34
-30 -77 -70 -95 -88 -23 -23 -35 -29 -38 -20 -3 7 -6 -2 -6 -20 -2 -69 62
-297 147 -522 58 -154 188 -434 225 -484 14 -20 147 -238 147 -242 0 -2 6 -12
14 -21 8 -10 64 -81 125 -158 279 -351 690 -707 1071 -927 95 -56 167 -91 315
-155 44 -19 98 -43 120 -53 57 -25 342 -117 454 -146 107 -27 347 -67 501 -83
133 -14 451 -14 578 0 382 41 837 167 1139 315 307 150 535 304 858 578 198
168 482 495 630 726 26 41 58 91 70 110 58 89 81 131 169 307 91 182 187 411
219 523 79 275 79 289 4 347 -23 18 -53 42 -67 55 -37 34 -142 113 -165 126
-19 10 -22 6 -39 -56z"/>
<path d="M7196 2718 c3 -5 10 -6 15 -3 13 9 11 12 -6 12 -8 0 -12 -4 -9 -9z"/>
<path d="M7090 2619 c0 -5 5 -7 10 -4 6 3 10 8 10 11 0 2 -4 4 -10 4 -5 0 -10
-5 -10 -11z"/>
</g>
</svg>
