<svg version="1.2" xmlns="http://www.w3.org/2000/svg" viewBox="0 0 1050 161" width="1050" height="161">
	<title>New Project</title>
	<style>
		.s0 { fill: #0e182a } 
	</style>
	<path id="Hyperspeed Bridge" class="s0" aria-label="Hyperspeed Bridge"  d="m94.3 37.3v62.7h-10.3v-26.9h-33.2v26.9h-10.3v-62.7h10.3v34.5l7.6-7.6h25.6v-26.9zm65.3 17.9v62.7q0 3.7-2.7 6.4-2.5 2.6-6.2 2.6h-37.2l7.7-7.7h29.5v-25.6l-6.4 6.4h-20.5q-3.7 0-6.4-2.6-2.6-2.6-2.6-6.4v-35.8h9v37.1h26.9v-37.1zm63.3 9v26.8q0 3.8-2.7 6.4-2.5 2.6-6.2 2.6h-26.9v26.9h-9v-71.7h9v6.4l6.4-6.4h20.5q3.7 0 6.2 2.7 2.7 2.5 2.7 6.3zm-29.4 28.1h20.5v-29.4h-26.9v35.8zm92.1 0v7.7h-35.8q-3.7 0-6.4-2.6-2.6-2.6-2.6-6.4v-26.8q0-3.8 2.6-6.3 2.7-2.7 6.4-2.7h26.9q3.7 0 6.3 2.7 2.6 2.5 2.6 6.3v8.9l-8.9 9h-25.6l7.7-7.7h17.9v-11.5h-26.9v29.4zm49.9-28.1v8.9h-8.9v-10.2h-18v37.1h-8.9v-44.8h8.9v6.4l6.4-6.4h11.6q3.7 0 6.2 2.7 2.7 2.5 2.7 6.3zm21.1-9h29.5l-7.8 7.7h-21.7v10.2h18q3.7 0 6.2 2.7 2.7 2.6 2.7 6.3v8.9q0 3.8-2.7 6.4-2.5 2.6-6.2 2.6h-26.9v-7.7h26.9v-11.5h-18q-3.7 0-6.4-2.6-2.5-2.6-2.5-6.4v-7.6q0-3.8 2.5-6.3 2.7-2.7 6.4-2.7zm87.7 9v26.8q0 3.8-2.7 6.4-2.5 2.6-6.2 2.6h-26.9v26.9h-9v-71.7h9v6.4l6.4-6.4h20.5q3.7 0 6.2 2.7 2.7 2.5 2.7 6.3zm-29.4 28.1h20.5v-29.4h-26.9v35.8zm92.1 0v7.7h-35.8q-3.7 0-6.4-2.6-2.6-2.6-2.6-6.4v-26.8q0-3.8 2.6-6.3 2.7-2.7 6.4-2.7h26.9q3.7 0 6.3 2.7 2.6 2.5 2.6 6.3v8.9l-8.9 9h-25.6l7.7-7.7h17.9v-11.5h-26.9v29.4zm58.9 0v7.7h-35.9q-3.7 0-6.4-2.6-2.5-2.6-2.5-6.4v-26.8q0-3.8 2.5-6.3 2.7-2.7 6.4-2.7h26.9q3.7 0 6.3 2.7 2.7 2.5 2.7 6.3v8.9l-9 9h-25.6l7.7-7.7h17.9v-11.5h-26.9v29.4zm58.9-66.5v74.2h-8.9v-6.4l-6.4 6.4h-20.5q-3.7 0-6.4-2.6-2.6-2.6-2.6-6.4v-26.8q0-3.8 2.6-6.3 2.7-2.7 6.4-2.7h26.9v-20.5zm-35.9 66.6h26.9v-35.9l-6.4 6.4h-20.5zm137-19.2v18q0 3.7-2.7 6.4-2.6 2.5-6.3 2.5h-44.8v-44.8l9-8.9h-9v-9h35.9q3.7 0 6.2 2.7 2.7 2.5 2.7 6.3v17.9h0.3q3.7 0 6.1 2.7 2.6 2.5 2.6 6.2zm-35.9-8.9h16.7v-17.9h-24.3v25.6zm-7.7 26.8h33.3v-17.9h-33.3zm97.3-26.9v9h-9v-10.2h-17.9v37.1h-9v-44.8h9v6.4l6.4-6.4h11.5q3.7 0 6.3 2.7 2.7 2.5 2.7 6.2zm23-26.8v10.2h-9v-10.2zm0 15.3v47.4h-8.9v-38.4zm62.7-26.9v74.2h-9v-6.4l-6.4 6.4h-20.4q-3.8 0-6.4-2.5-2.6-2.7-2.6-6.4v-26.9q0-3.7 2.6-6.3 2.6-2.7 6.4-2.7h26.8v-20.4zm-35.8 66.5h26.9v-35.8l-6.4 6.4h-20.5zm65.3-37.1h39.7l-7.7 7.6h-32v29.5h26.9v-25.6h8.9v51.2q0 3.7-2.7 6.4-2.5 2.5-6.2 2.5h-37.2l7.7-7.6h29.5v-25.8l-7.7 6.6h-19.2q-3.7 0-6.4-2.6-2.6-2.7-2.6-6.4v-26.9q0-3.7 2.6-6.3 2.7-2.6 6.4-2.6zm99.2 37.1v7.7h-35.9q-3.7 0-6.4-2.6-2.5-2.7-2.5-6.4v-26.9q0-3.7 2.5-6.3 2.7-2.6 6.4-2.6h26.9q3.7 0 6.3 2.6 2.7 2.6 2.7 6.3v9l-9 8.9h-25.6l7.7-7.6h17.9v-11.6h-26.9v29.5z"/>
</svg>